<svg xmlns="http://www.w3.org/2000/svg" viewBox="0 0 512 512">
    <defs>
    <linearGradient id="sky" x1="0" y1="0" x2="0" y2="1"><stop offset="0" stop-color="#8bdcff"/><stop offset="1" stop-color="#dff8ff"/></linearGradient>
    <filter id="shadow"><feDropShadow dx="0" dy="5" stdDeviation="5" flood-opacity=".18"/></filter>
    </defs>
    <rect width="512" height="512" rx="36" fill="url(#sky)"/>
    <circle cx="85" cy="85" r="30" fill="#fff" opacity=".8"/><circle cx="112" cy="85" r="24" fill="#fff" opacity=".8"/>
    <path d="M0 420 Q90 370 180 420 Q280 360 370 420 Q440 375 512 420 L512 512 L0 512Z" fill="#8bdc6c"/>
    <path d="M0 465 Q110 420 220 470 Q350 410 512 470 L512 512 L0 512Z" fill="#68c65b"/><circle cx="256" cy="245" r="112" fill="#9a6a46" stroke="#4a4650" stroke-width="8" filter="url(#shadow)"/>
        <circle cx="155" cy="160" r="48" fill="#9a6a46" stroke="#4a4650" stroke-width="8"/><circle cx="357" cy="160" r="48" fill="#9a6a46" stroke="#4a4650" stroke-width="8"/>
        <circle cx="232" cy="232" r="7" fill="#24324a"/>
        <circle cx="280" cy="232" r="7" fill="#24324a"/>
        <path d="M236 260 Q256 278 276 260" fill="none" stroke="#24324a" stroke-width="5" stroke-linecap="round"/></svg>